Coordinates
version=1
nRows=13
nColumns=40
inDegrees=yes

Units are S.I. units (second, meters, Newtons, ...)
Angles are in degrees.

endheader
time	pelvis_tilt	pelvis_list	pelvis_rotation	pelvis_tx	pelvis_ty	pelvis_tz	hip_flexion_r	hip_adduction_r	hip_rotation_r	knee_angle_r	knee_angle_r_beta	ankle_angle_r	subtalar_angle_r	mtp_angle_r	hip_flexion_l	hip_adduction_l	hip_rotation_l	knee_angle_l	knee_angle_l_beta	ankle_angle_l	subtalar_angle_l	mtp_angle_l	lumbar_extension	lumbar_bending	lumbar_rotation	arm_flex_r	arm_add_r	arm_rot_r	elbow_flex_r	pro_sup_r	wrist_flex_r	wrist_dev_r	arm_flex_l	arm_add_l	arm_rot_l	elbow_flex_l	pro_sup_l	wrist_flex_l	wrist_dev_l
     36.81500000	     -3.89190284	     -3.86473232	    -10.54244977	      0.93749093	      0.92529893	      0.46785426	     26.37602054	     -0.43981019	     -8.03460098	     23.04399654	     23.04399654	      5.88584382	     -1.23497217	      0.41365127	      4.53966260	     -2.40697146	    -11.76061640	     19.18897301	     19.18897301	     20.33167240	    -13.68662248	      3.85287459	    -11.33300947	      7.88493997	      1.08239712	    -13.85644598	    -10.90375126	    -15.27682100	     24.15844099	     46.67316675	      0.00000000	      0.00000000	     30.48532381	    -19.69766569	     -3.51632500	     65.48197937	     47.28215605	      0.00000000	      0.00000000
     36.83421429	     -4.07154143	     -3.60205901	    -10.84735565	      0.93826080	      0.92432692	      0.47110933	     26.19618760	     -0.38957318	     -8.55422180	     21.56850854	     21.56850854	      5.83314604	      0.95598325	      0.93858052	      3.72186890	     -2.23928644	    -12.42511848	     18.16137100	     18.16137100	     19.75785201	    -13.24162580	      1.77273697	    -11.19926781	      7.67610582	      0.66751588	    -14.94278045	    -10.91460757	    -15.70373498	     27.01072800	     46.56272072	      0.00000000	      0.00000000	     30.03827029	    -20.13189679	     -5.41511043	     69.34232578	     47.49173890	      0.00000000	      0.00000000
     36.85342857	     -4.14660896	     -3.49532273	    -11.06467036	      0.93939078	      0.92353302	      0.47458904	     25.79339982	     -0.12987767	     -8.65649265	     20.39634954	     20.39634954	      5.55583145	      1.94762304	      1.10899419	      2.81176241	     -2.19036227	    -12.77322715	     17.29936847	     17.29936847	     19.88452327	    -12.80923494	      1.49590468	    -11.07257495	      7.65775267	      0.83580965	    -15.28037980	    -11.00977086	    -15.68924011	     27.28415820	     46.54484811	      0.00000000	      0.00000000	     30.80747678	    -20.17887737	     -5.83089501	     70.43621847	     47.54801839	      0.00000000	      0.00000000
     36.87264286	     -4.22408189	     -3.37860011	    -11.21345044	      0.94080998	      0.92244514	      0.47820183	     25.56226681	      0.00124401	     -8.89020301	     19.96405056	     19.96405056	      5.19042999	      2.72844580	      0.25462765	      2.00750818	     -2.19878269	    -13.25080137	     16.66168782	     16.66168782	     19.92489966	    -12.21675812	      0.62229468	    -10.98371248	      7.63209874	      0.76357768	    -15.67495654	    -11.13399719	    -15.78659324	     28.71959407	     46.47892457	      0.00000000	      0.00000000	     30.94666773	    -20.19597571	     -7.05252383	     72.74352249	     47.68160562	      0.00000000	      0.00000000
     36.89185714	     -4.40981394	     -3.35053469	    -11.27204935	      0.94231073	      0.92126467	      0.48196735	     25.50774492	      0.24416011	     -8.87044947	     20.02709712	     20.02709712	      5.10160920	      2.70865567	      0.14198619	      1.47002243	     -2.32195008	    -13.31372986	     16.33154370	     16.33154370	     20.15790792	    -12.09451967	      0.57958311	    -10.67591794	      7.76114204	      0.80029568	    -15.49607956	    -11.33462778	    -15.80564512	     28.86952375	     46.47542421	      0.00000000	      0.00000000	     31.63731198	    -20.30883738	     -7.22099141	     73.21490890	     47.70664547	      0.00000000	      0.00000000
     36.91107143	     -4.33747977	     -3.35346325	    -11.32761142	      0.94435537	      0.92054387	      0.48610594	     25.07531540	      0.54775488	     -8.48985208	     20.15861910	     20.15861910	      4.42819288	      1.91806866	     -2.04174002	      0.52526354	     -2.49447153	    -13.80441036	     15.87166048	     15.87166048	     20.48859782	    -11.25132635	      0.38590196	    -10.74814772	      7.83748828	      0.69127858	    -15.46381116	    -11.48518334	    -16.02366361	     30.20164799	     46.42431385	      0.00000000	      0.00000000	     31.35679929	    -20.11839698	     -8.79302725	     75.77873536	     47.86351051	      0.00000000	      0.00000000
     36.93028571	     -4.39467986	     -3.36891059	    -11.29399243	      0.94641260	      0.91976950	      0.49036741	     24.89232558	      0.84008479	     -8.10890312	     20.70495056	     20.70495056	      4.12377689	      0.90326909	     -3.48274916	     -0.10612785	     -2.72493292	    -13.95206405	     15.72154068	     15.72154068	     20.87469732	    -10.82161253	      0.67838936	    -10.61385856	      7.96815655	      0.65766862	    -14.99717379	    -11.66490889	    -16.04969385	     30.51078661	     46.40690322	      0.00000000	      0.00000000	     31.49213729	    -20.02509818	     -9.50544533	     76.92915213	     47.93873571	      0.00000000	      0.00000000
     36.94950000	     -4.38510415	     -3.40634024	    -11.17818680	      0.94857731	      0.91927440	      0.49476851	     24.69421918	      1.06054814	     -7.95571884	     21.53682406	     21.53682406	      4.38077459	      0.25506380	     -3.78498385	     -0.70098259	     -2.99990820	    -13.94904279	     15.75119809	     15.75119809	     21.01332731	    -10.70749410	      0.73898911	    -10.52456779	      8.08003078	      0.75159790	    -14.52931405	    -11.87769585	    -16.09301093	     30.68484240	     46.40567976	      0.00000000	      0.00000000	     31.89632622	    -19.88878062	     -9.62616338	     77.38463273	     47.95807898	      0.00000000	      0.00000000
     36.96871429	     -4.47526521	     -3.43008504	    -11.04411431	      0.95073372	      0.91887892	      0.49945548	     24.57516929	      1.41546859	     -7.35584173	     22.33447917	     22.33447917	      4.58618435	     -1.22079112	     -4.02702073	     -1.05854506	     -3.37562599	    -14.10319587	     16.04055268	     16.04055268	     21.26327427	    -10.32503223	      0.93807598	    -10.34002153	      8.17644162	      0.79956764	    -13.96957575	    -12.02571591	    -16.29244045	     30.96546883	     46.40863284	      0.00000000	      0.00000000	     31.93245382	    -19.62410644	    -10.12994289	     78.42055624	     48.01174811	      0.00000000	      0.00000000
     36.98792857	     -4.47921415	     -3.50919784	    -10.80835369	      0.95306165	      0.91901246	      0.50409508	     24.16685300	      1.65852911	     -7.40607555	     22.86328668	     22.86328668	      4.98046216	     -1.57098760	     -4.21827003	     -1.47928998	     -3.78259301	    -13.98084197	     16.34648675	     16.34648675	     21.16898609	    -10.30756636	      1.00280777	    -10.22935961	      8.33552518	      0.84799239	    -13.33198464	    -12.24026559	    -16.33562391	     31.19548669	     46.40718597	      0.00000000	      0.00000000	     32.08798193	    -19.41453090	    -10.12840621	     78.62111238	     48.01626940	      0.00000000	      0.00000000
     37.00714286	     -4.37979580	     -3.53843448	    -10.50958145	      0.95519756	      0.91937190	      0.50883204	     23.73966553	      1.85627876	     -7.32663955	     23.50748771	     23.50748771	      5.43924890	     -2.25945434	     -4.32682559	     -1.71935517	     -4.22075359	    -13.86503236	     17.15589242	     17.15589242	     21.10874706	    -10.33484086	      0.98404537	    -10.30681761	      8.39841641	      0.88926259	    -12.66661469	    -12.43765986	    -16.42812856	     31.43142609	     46.40848968	      0.00000000	      0.00000000	     32.21241588	    -19.21113128	    -10.25119903	     78.99317757	     48.03211928	      0.00000000	      0.00000000
     37.02635714	     -4.42115000	     -3.57181239	    -10.19057688	      0.95715258	      0.91981827	      0.51374362	     23.34309512	      2.12722892	     -7.23958713	     23.87822912	     23.87822912	      5.88572703	     -2.94513686	     -4.23552737	     -1.54672294	     -4.79686458	    -13.73430156	     18.43831554	     18.43831554	     20.96339514	    -10.35624224	      0.85955756	    -10.21360157	      8.42666378	      0.89534710	    -12.03294591	    -12.59111985	    -16.57966976	     31.64897708	     46.41351443	      0.00000000	      0.00000000	     32.16847662	    -19.02476569	    -10.46870926	     79.46642006	     48.05528031	      0.00000000	      0.00000000
     37.04557143	     -4.54354068	     -3.62987842	     -9.77366850	      0.95896142	      0.92041417	      0.51857417	     22.89844505	      2.40399590	     -7.33350712	     23.97038283	     23.97038283	      6.41234853	     -3.37581739	     -3.93121912	     -1.04862113	     -5.51134497	    -13.61119353	     20.11544334	     20.11544334	     20.69156394	    -10.33423456	      0.56484114	    -10.01072304	      8.50739576	      0.76833573	    -11.33590202	    -12.77314832	    -16.82721636	     31.83858959	     46.42549260	      0.00000000	      0.00000000	     31.85673104	    -18.80049750	    -10.74132001	     79.97613295	     48.08148733	      0.00000000	      0.00000000
